<svg width="253" height="132" viewBox="0 0 253 132" fill="none" xmlns="http://www.w3.org/2000/svg">
<rect width="253" height="132" rx="4" fill="black"/>
<path d="M32.8 56.4C30.96 56.4 29.2933 56.1867 27.8 55.76C26.3333 55.3067 25.0267 54.6667 23.88 53.84C22.7333 52.9867 21.7067 51.9867 20.8 50.84L24.92 46.16C26.2533 47.9467 27.5867 49.1467 28.92 49.76C30.28 50.3733 31.68 50.68 33.12 50.68C33.84 50.68 34.4933 50.5867 35.08 50.4C35.6667 50.2133 36.12 49.9467 36.44 49.6C36.76 49.2267 36.92 48.7733 36.92 48.24C36.92 47.84 36.8133 47.48 36.6 47.16C36.4133 46.84 36.1467 46.56 35.8 46.32C35.4533 46.08 35.04 45.8667 34.56 45.68C34.08 45.4667 33.5733 45.2933 33.04 45.16C32.5067 45 31.96 44.8667 31.4 44.76C29.8533 44.4133 28.5067 43.9867 27.36 43.48C26.2133 42.9733 25.2533 42.36 24.48 41.64C23.7333 40.8933 23.1733 40.0533 22.8 39.12C22.4267 38.16 22.24 37.0933 22.24 35.92C22.24 34.6667 22.52 33.52 23.08 32.48C23.6667 31.4133 24.44 30.5067 25.4 29.76C26.3867 28.9867 27.52 28.4 28.8 28C30.08 27.5733 31.4133 27.36 32.8 27.36C34.64 27.36 36.2133 27.56 37.52 27.96C38.8533 28.3333 39.9867 28.88 40.92 29.6C41.88 30.32 42.6933 31.1867 43.36 32.2L39.16 36.24C38.6 35.5467 37.9867 34.9733 37.32 34.52C36.68 34.0667 35.9867 33.72 35.24 33.48C34.52 33.24 33.7733 33.12 33 33.12C32.2 33.12 31.5067 33.2267 30.92 33.44C30.36 33.6267 29.92 33.9067 29.6 34.28C29.28 34.6267 29.12 35.0533 29.12 35.56C29.12 36.0133 29.2533 36.4 29.52 36.72C29.7867 37.04 30.1467 37.3333 30.6 37.6C31.0533 37.84 31.5733 38.0533 32.16 38.24C32.7467 38.4 33.36 38.5333 34 38.64C35.4667 38.9333 36.7867 39.32 37.96 39.8C39.16 40.28 40.1867 40.8667 41.04 41.56C41.92 42.2533 42.5867 43.08 43.04 44.04C43.52 44.9733 43.76 46.0667 43.76 47.32C43.76 49.2667 43.28 50.92 42.32 52.28C41.3867 53.6133 40.0933 54.64 38.44 55.36C36.8133 56.0533 34.9333 56.4 32.8 56.4ZM56.0316 56.36C54.2449 56.36 52.6449 55.8933 51.2316 54.96C49.8449 54 48.7382 52.6933 47.9116 51.04C47.0849 49.36 46.6716 47.4667 46.6716 45.36C46.6716 43.2 47.0849 41.2933 47.9116 39.64C48.7382 37.9867 49.8716 36.6933 51.3116 35.76C52.7516 34.8 54.3916 34.32 56.2316 34.32C57.2449 34.32 58.1649 34.4667 58.9916 34.76C59.8449 35.0533 60.5916 35.4667 61.2316 36C61.8716 36.5067 62.4182 37.1067 62.8716 37.8C63.3249 38.4667 63.6582 39.1867 63.8716 39.96L62.5516 39.8V34.76H68.9116V56H62.4316V50.88L63.8716 50.84C63.6582 51.5867 63.3116 52.2933 62.8316 52.96C62.3516 53.6267 61.7649 54.2133 61.0716 54.72C60.3782 55.2267 59.6049 55.6267 58.7516 55.92C57.8982 56.2133 56.9916 56.36 56.0316 56.36ZM57.7916 50.96C58.7782 50.96 59.6316 50.7333 60.3516 50.28C61.0716 49.8267 61.6316 49.1867 62.0316 48.36C62.4316 47.5067 62.6316 46.5067 62.6316 45.36C62.6316 44.2133 62.4316 43.2267 62.0316 42.4C61.6316 41.5467 61.0716 40.8933 60.3516 40.44C59.6316 39.96 58.7782 39.72 57.7916 39.72C56.8316 39.72 55.9916 39.96 55.2716 40.44C54.5782 40.8933 54.0316 41.5467 53.6316 42.4C53.2316 43.2267 53.0316 44.2133 53.0316 45.36C53.0316 46.5067 53.2316 47.5067 53.6316 48.36C54.0316 49.1867 54.5782 49.8267 55.2716 50.28C55.9916 50.7333 56.8316 50.96 57.7916 50.96ZM74.5188 56V34.76H80.5988L80.7988 38.6L79.9588 38.64C80.2788 37.9467 80.6788 37.3333 81.1588 36.8C81.6654 36.2667 82.2254 35.8267 82.8388 35.48C83.4788 35.1067 84.1321 34.8267 84.7988 34.64C85.4921 34.4533 86.1854 34.36 86.8788 34.36C87.9188 34.36 88.8654 34.52 89.7188 34.84C90.5721 35.16 91.3188 35.68 91.9588 36.4C92.5988 37.0933 93.1054 38.04 93.4788 39.24L92.4788 39.16L92.7988 38.52C93.1454 37.88 93.5854 37.3067 94.1188 36.8C94.6788 36.2667 95.2921 35.8267 95.9588 35.48C96.6254 35.1067 97.3188 34.8267 98.0388 34.64C98.7588 34.4533 99.4521 34.36 100.119 34.36C101.799 34.36 103.199 34.6933 104.319 35.36C105.439 36 106.279 36.9733 106.839 38.28C107.425 39.5867 107.719 41.1733 107.719 43.04V56H101.279V43.56C101.279 42.7067 101.159 42 100.919 41.44C100.679 40.88 100.319 40.4667 99.8388 40.2C99.3854 39.9067 98.8121 39.76 98.1188 39.76C97.5588 39.76 97.0388 39.8533 96.5588 40.04C96.1054 40.2267 95.7054 40.48 95.3588 40.8C95.0388 41.12 94.7854 41.4933 94.5988 41.92C94.4121 42.3467 94.3187 42.8267 94.3187 43.36V56H87.8788V43.52C87.8788 42.72 87.7588 42.04 87.5188 41.48C87.2788 40.92 86.9188 40.4933 86.4388 40.2C85.9588 39.9067 85.3988 39.76 84.7588 39.76C84.1988 39.76 83.6788 39.8533 83.1988 40.04C82.7454 40.2267 82.3454 40.48 81.9987 40.8C81.6788 41.12 81.4254 41.4933 81.2388 41.92C81.0521 42.3467 80.9588 42.8133 80.9588 43.32V56H74.5188ZM113.035 64.8V34.76H119.115L119.355 39.52L118.155 39.16C118.342 38.28 118.795 37.48 119.515 36.76C120.235 36.04 121.142 35.4667 122.235 35.04C123.355 34.5867 124.529 34.36 125.755 34.36C127.569 34.36 129.182 34.84 130.595 35.8C132.009 36.7333 133.115 38.0267 133.915 39.68C134.742 41.3067 135.155 43.2 135.155 45.36C135.155 47.4933 134.742 49.3867 133.915 51.04C133.115 52.6933 131.995 54 130.555 54.96C129.142 55.8933 127.515 56.36 125.675 56.36C124.475 56.36 123.329 56.1333 122.235 55.68C121.142 55.2267 120.222 54.6133 119.475 53.84C118.729 53.0667 118.235 52.2267 117.995 51.32L119.475 50.76V64.8H113.035ZM124.115 50.96C125.075 50.96 125.915 50.7333 126.635 50.28C127.355 49.8 127.915 49.1467 128.315 48.32C128.715 47.4933 128.915 46.5067 128.915 45.36C128.915 44.24 128.715 43.2667 128.315 42.44C127.915 41.5867 127.355 40.9333 126.635 40.48C125.942 40 125.102 39.76 124.115 39.76C123.129 39.76 122.275 39.9867 121.555 40.44C120.835 40.8933 120.275 41.5467 119.875 42.4C119.475 43.2533 119.275 44.24 119.275 45.36C119.275 46.5067 119.475 47.4933 119.875 48.32C120.275 49.1467 120.835 49.8 121.555 50.28C122.275 50.7333 123.129 50.96 124.115 50.96ZM139.443 56V26.4H145.843V56H139.443ZM161.28 56.4C158.934 56.4 156.894 55.9333 155.16 55C153.427 54.04 152.08 52.7467 151.12 51.12C150.16 49.4667 149.68 47.5867 149.68 45.48C149.68 43.8533 149.947 42.36 150.48 41C151.014 39.64 151.76 38.4667 152.72 37.48C153.68 36.4667 154.814 35.6933 156.12 35.16C157.454 34.6 158.907 34.32 160.48 34.32C161.974 34.32 163.334 34.5867 164.56 35.12C165.814 35.6533 166.894 36.4 167.8 37.36C168.707 38.32 169.4 39.4533 169.88 40.76C170.36 42.0667 170.574 43.4933 170.52 45.04L170.48 46.76H153.56L152.64 43.16H165.28L164.6 43.92V43.12C164.547 42.4533 164.334 41.8667 163.96 41.36C163.614 40.8267 163.147 40.4133 162.56 40.12C161.974 39.8267 161.307 39.68 160.56 39.68C159.52 39.68 158.627 39.8933 157.88 40.32C157.16 40.72 156.614 41.32 156.24 42.12C155.867 42.8933 155.68 43.8533 155.68 45C155.68 46.1733 155.92 47.2 156.4 48.08C156.907 48.9333 157.627 49.6 158.56 50.08C159.52 50.56 160.654 50.8 161.96 50.8C162.867 50.8 163.667 50.6667 164.36 50.4C165.08 50.1333 165.854 49.68 166.68 49.04L169.68 53.28C168.854 54 167.974 54.5867 167.04 55.04C166.107 55.4933 165.147 55.8267 164.16 56.04C163.2 56.28 162.24 56.4 161.28 56.4ZM22.88 106V76.4H29.28V106H22.88ZM44.5978 106.4C42.3845 106.4 40.4111 105.92 38.6778 104.96C36.9711 104 35.6111 102.693 34.5978 101.04C33.6111 99.3867 33.1178 97.4933 33.1178 95.36C33.1178 93.2267 33.6111 91.3333 34.5978 89.68C35.6111 88.0267 36.9711 86.72 38.6778 85.76C40.4111 84.8 42.3845 84.32 44.5978 84.32C46.8111 84.32 48.7711 84.8 50.4778 85.76C52.2111 86.72 53.5711 88.0267 54.5578 89.68C55.5445 91.3333 56.0378 93.2267 56.0378 95.36C56.0378 97.4933 55.5445 99.3867 54.5578 101.04C53.5711 102.693 52.2111 104 50.4778 104.96C48.7711 105.92 46.8111 106.4 44.5978 106.4ZM44.5978 100.88C45.5578 100.88 46.4111 100.64 47.1578 100.16C47.9045 99.68 48.4911 99.0267 48.9178 98.2C49.3445 97.3733 49.5445 96.4267 49.5178 95.36C49.5445 94.2933 49.3445 93.3467 48.9178 92.52C48.4911 91.6667 47.9045 91 47.1578 90.52C46.4111 90.04 45.5578 89.8 44.5978 89.8C43.6378 89.8 42.7711 90.04 41.9978 90.52C41.2511 91 40.6645 91.6667 40.2378 92.52C39.8111 93.3467 39.6111 94.2933 39.6378 95.36C39.6111 96.4267 39.8111 97.3733 40.2378 98.2C40.6645 99.0267 41.2511 99.68 41.9978 100.16C42.7711 100.64 43.6378 100.88 44.5978 100.88ZM69.9428 115.2C68.2095 115.2 66.4761 114.947 64.7428 114.44C63.0361 113.933 61.6495 113.28 60.5828 112.48L62.8228 108C63.3828 108.373 63.9961 108.693 64.6628 108.96C65.3561 109.253 66.0761 109.48 66.8228 109.64C67.5695 109.8 68.3295 109.88 69.1028 109.88C70.4628 109.88 71.5695 109.68 72.4228 109.28C73.2761 108.88 73.9161 108.267 74.3428 107.44C74.7695 106.64 74.9828 105.627 74.9828 104.4V100.84L76.2228 101.04C76.0361 101.92 75.5695 102.72 74.8228 103.44C74.1028 104.16 73.2095 104.747 72.1428 105.2C71.0761 105.627 69.9428 105.84 68.7428 105.84C66.8228 105.84 65.1028 105.4 63.5828 104.52C62.0895 103.613 60.9028 102.373 60.0228 100.8C59.1695 99.2 58.7428 97.36 58.7428 95.28C58.7428 93.1467 59.1695 91.2667 60.0228 89.64C60.8761 87.9867 62.0495 86.6933 63.5428 85.76C65.0361 84.8 66.7161 84.32 68.5828 84.32C69.3828 84.32 70.1428 84.4133 70.8628 84.6C71.6095 84.7867 72.2895 85.04 72.9028 85.36C73.5428 85.6533 74.1028 86.0133 74.5828 86.44C75.0895 86.84 75.4895 87.28 75.7828 87.76C76.1028 88.24 76.3161 88.7333 76.4228 89.24L75.1028 89.56L75.3428 84.76H81.4228V104.28C81.4228 106.013 81.1561 107.547 80.6228 108.88C80.1161 110.24 79.3561 111.387 78.3428 112.32C77.3561 113.28 76.1561 114 74.7428 114.48C73.3295 114.96 71.7295 115.2 69.9428 115.2ZM70.1028 100.88C71.1428 100.88 72.0361 100.653 72.7828 100.2C73.5561 99.72 74.1428 99.0667 74.5428 98.24C74.9695 97.4133 75.1828 96.44 75.1828 95.32C75.1828 94.2 74.9695 93.2267 74.5428 92.4C74.1428 91.5467 73.5561 90.8933 72.7828 90.44C72.0361 89.96 71.1428 89.72 70.1028 89.72C69.0895 89.72 68.2095 89.96 67.4628 90.44C66.7161 90.8933 66.1295 91.5467 65.7028 92.4C65.3028 93.2267 65.1028 94.2 65.1028 95.32C65.1028 96.44 65.3028 97.4133 65.7028 98.24C66.1295 99.0667 66.7161 99.72 67.4628 100.2C68.2095 100.653 69.0895 100.88 70.1028 100.88ZM96.9806 106.4C94.7673 106.4 92.794 105.92 91.0606 104.96C89.354 104 87.994 102.693 86.9806 101.04C85.994 99.3867 85.5006 97.4933 85.5006 95.36C85.5006 93.2267 85.994 91.3333 86.9806 89.68C87.994 88.0267 89.354 86.72 91.0606 85.76C92.794 84.8 94.7673 84.32 96.9806 84.32C99.194 84.32 101.154 84.8 102.861 85.76C104.594 86.72 105.954 88.0267 106.941 89.68C107.927 91.3333 108.421 93.2267 108.421 95.36C108.421 97.4933 107.927 99.3867 106.941 101.04C105.954 102.693 104.594 104 102.861 104.96C101.154 105.92 99.194 106.4 96.9806 106.4ZM96.9806 100.88C97.9406 100.88 98.794 100.64 99.5406 100.16C100.287 99.68 100.874 99.0267 101.301 98.2C101.727 97.3733 101.927 96.4267 101.901 95.36C101.927 94.2933 101.727 93.3467 101.301 92.52C100.874 91.6667 100.287 91 99.5406 90.52C98.794 90.04 97.9406 89.8 96.9806 89.8C96.0206 89.8 95.154 90.04 94.3806 90.52C93.634 91 93.0473 91.6667 92.6206 92.52C92.194 93.3467 91.994 94.2933 92.0206 95.36C91.994 96.4267 92.194 97.3733 92.6206 98.2C93.0473 99.0267 93.634 99.68 94.3806 100.16C95.154 100.64 96.0206 100.88 96.9806 100.88ZM112.966 106V84.76H119.366V106H112.966ZM116.166 80.56C114.966 80.56 114.019 80.28 113.326 79.72C112.659 79.1333 112.326 78.3067 112.326 77.24C112.326 76.28 112.672 75.4933 113.366 74.88C114.059 74.2667 114.992 73.96 116.166 73.96C117.366 73.96 118.299 74.2533 118.966 74.84C119.632 75.4 119.966 76.2 119.966 77.24C119.966 78.2267 119.619 79.0267 118.926 79.64C118.259 80.2533 117.339 80.56 116.166 80.56ZM125.379 114.8V84.76H131.459L131.699 89.52L130.499 89.16C130.686 88.28 131.139 87.48 131.859 86.76C132.579 86.04 133.486 85.4667 134.579 85.04C135.699 84.5867 136.872 84.36 138.099 84.36C139.912 84.36 141.526 84.84 142.939 85.8C144.352 86.7333 145.459 88.0267 146.259 89.68C147.086 91.3067 147.499 93.2 147.499 95.36C147.499 97.4933 147.086 99.3867 146.259 101.04C145.459 102.693 144.339 104 142.899 104.96C141.486 105.893 139.859 106.36 138.019 106.36C136.819 106.36 135.672 106.133 134.579 105.68C133.486 105.227 132.566 104.613 131.819 103.84C131.072 103.067 130.579 102.227 130.339 101.32L131.819 100.76V114.8H125.379ZM136.459 100.96C137.419 100.96 138.259 100.733 138.979 100.28C139.699 99.8 140.259 99.1467 140.659 98.32C141.059 97.4933 141.259 96.5067 141.259 95.36C141.259 94.24 141.059 93.2667 140.659 92.44C140.259 91.5867 139.699 90.9333 138.979 90.48C138.286 90 137.446 89.76 136.459 89.76C135.472 89.76 134.619 89.9867 133.899 90.44C133.179 90.8933 132.619 91.5467 132.219 92.4C131.819 93.2533 131.619 94.24 131.619 95.36C131.619 96.5067 131.819 97.4933 132.219 98.32C132.619 99.1467 133.179 99.8 133.899 100.28C134.619 100.733 135.472 100.96 136.459 100.96ZM158.906 106.4C156.826 106.4 154.986 106.067 153.386 105.4C151.813 104.733 150.56 103.84 149.626 102.72L153.506 99.36C154.333 100.187 155.266 100.8 156.306 101.2C157.346 101.573 158.333 101.76 159.266 101.76C159.64 101.76 159.973 101.72 160.266 101.64C160.56 101.56 160.8 101.453 160.986 101.32C161.2 101.16 161.36 100.987 161.466 100.8C161.573 100.587 161.626 100.347 161.626 100.08C161.626 99.5467 161.386 99.1333 160.906 98.84C160.666 98.7067 160.266 98.5467 159.706 98.36C159.146 98.1733 158.426 97.96 157.546 97.72C156.293 97.4 155.2 97.0267 154.266 96.6C153.36 96.1467 152.613 95.6267 152.026 95.04C151.493 94.48 151.08 93.8667 150.786 93.2C150.493 92.5067 150.346 91.7333 150.346 90.88C150.346 89.8933 150.573 89 151.026 88.2C151.506 87.4 152.133 86.7067 152.906 86.12C153.706 85.5333 154.613 85.0933 155.626 84.8C156.666 84.48 157.733 84.32 158.826 84.32C160 84.32 161.12 84.4533 162.186 84.72C163.253 84.9867 164.24 85.36 165.146 85.84C166.08 86.32 166.906 86.8933 167.626 87.56L164.266 91.32C163.786 90.8667 163.24 90.4667 162.626 90.12C162.04 89.7467 161.426 89.4533 160.786 89.24C160.146 89.0267 159.56 88.92 159.026 88.92C158.626 88.92 158.266 88.96 157.946 89.04C157.653 89.0933 157.4 89.2 157.186 89.36C156.973 89.4933 156.813 89.6667 156.706 89.88C156.6 90.0667 156.546 90.2933 156.546 90.56C156.546 90.8267 156.613 91.08 156.746 91.32C156.906 91.56 157.12 91.76 157.386 91.92C157.653 92.08 158.08 92.2667 158.666 92.48C159.253 92.6667 160.053 92.9067 161.066 93.2C162.32 93.5467 163.4 93.9333 164.306 94.36C165.213 94.7867 165.933 95.2933 166.466 95.88C166.893 96.3333 167.213 96.8667 167.426 97.48C167.64 98.0667 167.746 98.7067 167.746 99.4C167.746 100.76 167.36 101.973 166.586 103.04C165.84 104.08 164.8 104.907 163.466 105.52C162.133 106.107 160.613 106.4 158.906 106.4ZM178.791 106.44C177.218 106.44 175.871 106.107 174.751 105.44C173.658 104.747 172.804 103.76 172.191 102.48C171.604 101.2 171.311 99.6667 171.311 97.88V84.76H177.751V97C177.751 97.8533 177.884 98.5867 178.151 99.2C178.418 99.8133 178.818 100.293 179.351 100.64C179.884 100.96 180.524 101.12 181.271 101.12C181.831 101.12 182.338 101.027 182.791 100.84C183.271 100.653 183.671 100.4 183.991 100.08C184.338 99.7333 184.604 99.3467 184.791 98.92C184.978 98.4667 185.071 97.9733 185.071 97.44V84.76H191.511V106H185.471L185.191 101.64L186.391 101.16C186.071 102.173 185.538 103.08 184.791 103.88C184.044 104.653 183.151 105.28 182.111 105.76C181.071 106.213 179.964 106.44 178.791 106.44ZM197.175 106V84.76H203.255L203.455 88.6L202.615 88.64C202.935 87.9467 203.335 87.3333 203.815 86.8C204.322 86.2667 204.882 85.8267 205.495 85.48C206.135 85.1067 206.788 84.8267 207.455 84.64C208.148 84.4533 208.842 84.36 209.535 84.36C210.575 84.36 211.522 84.52 212.375 84.84C213.228 85.16 213.975 85.68 214.615 86.4C215.255 87.0933 215.762 88.04 216.135 89.24L215.135 89.16L215.455 88.52C215.802 87.88 216.242 87.3067 216.775 86.8C217.335 86.2667 217.948 85.8267 218.615 85.48C219.282 85.1067 219.975 84.8267 220.695 84.64C221.415 84.4533 222.108 84.36 222.775 84.36C224.455 84.36 225.855 84.6933 226.975 85.36C228.095 86 228.935 86.9733 229.495 88.28C230.082 89.5867 230.375 91.1733 230.375 93.04V106H223.935V93.56C223.935 92.7067 223.815 92 223.575 91.44C223.335 90.88 222.975 90.4667 222.495 90.2C222.042 89.9067 221.468 89.76 220.775 89.76C220.215 89.76 219.695 89.8533 219.215 90.04C218.762 90.2267 218.362 90.48 218.015 90.8C217.695 91.12 217.442 91.4933 217.255 91.92C217.068 92.3467 216.975 92.8267 216.975 93.36V106H210.535V93.52C210.535 92.72 210.415 92.04 210.175 91.48C209.935 90.92 209.575 90.4933 209.095 90.2C208.615 89.9067 208.055 89.76 207.415 89.76C206.855 89.76 206.335 89.8533 205.855 90.04C205.402 90.2267 205.002 90.48 204.655 90.8C204.335 91.12 204.082 91.4933 203.895 91.92C203.708 92.3467 203.615 92.8133 203.615 93.32V106H197.175Z" fill="white"/>
</svg>
